<svg width="22" height="21" viewBox="0 0 22 21" fill="none" xmlns="http://www.w3.org/2000/svg">
<path fill-rule="evenodd" clip-rule="evenodd" d="M5.11719 4.99995H21.5C20.8678 8.65616 19.5 16 19.5 16H4.4998L2.74711 2.99995L0 1.99995L1 -4.95911e-05L4.61719 1.49995L5.11719 4.99995ZM6.505 18C5.67331 18 5.00005 18.6732 5.00005 19.5049C5.00005 20.3267 5.67331 21 6.505 21C7.32678 21 8.00005 20.3267 8.00005 19.5049C8.00005 18.6732 7.32678 18 6.505 18ZM17.505 18C16.6733 18 16.0001 18.6732 16.0001 19.5049C16.0001 20.3267 16.6733 21 17.505 21C18.3268 21 19.0001 20.3267 19.0001 19.5049C19.0001 18.6732 18.3268 18 17.505 18Z" fill="white"/>
</svg>
