<svg width="24" height="24" viewBox="0 0 24 24" fill="none" xmlns="http://www.w3.org/2000/svg">
<path fill-rule="evenodd" clip-rule="evenodd" d="M6.11719 5.99995H22.5C21.8678 9.65616 20.5 17 20.5 17H5.4998L3.74711 3.99995L1 2.99995L2 0.99995L5.61719 2.49995L6.11719 5.99995ZM7.505 19C6.67331 19 6.00005 19.6732 6.00005 20.5049C6.00005 21.3267 6.67331 22 7.505 22C8.32678 22 9.00005 21.3267 9.00005 20.5049C9.00005 19.6732 8.32678 19 7.505 19ZM18.505 19C17.6733 19 17.0001 19.6732 17.0001 20.5049C17.0001 21.3267 17.6733 22 18.505 22C19.3268 22 20.0001 21.3267 20.0001 20.5049C20.0001 19.6732 19.3268 19 18.505 19Z" fill="white"/>
</svg>
