<svg width="44" height="38" viewBox="0 0 44 38" fill="none" xmlns="http://www.w3.org/2000/svg">
<path fill-rule="evenodd" clip-rule="evenodd" d="M9.51653 22.1435L15.2055 32.0851H8.69595L10.5464 28.8527C10.6514 28.6786 10.707 28.4788 10.707 28.2751C10.707 28.0713 10.6514 27.8715 10.5464 27.6975L8.09016 23.4598L0 37.5724H0.0660886V37.6057H16.4502L17.4139 35.9395L19.6168 32.1073L20.4099 30.7188C20.4477 30.6541 20.472 30.5823 20.4815 30.5078C20.4929 30.3919 20.4678 30.2753 20.4099 30.1745L12.3473 16.0897L9.51103 21.0439C9.40704 21.2173 9.35207 21.416 9.35207 21.6187C9.35207 21.8213 9.40704 22.0201 9.51103 22.1935L9.51653 22.1435ZM21.5389 1.87941e-05L21.5058 0.0611039V0.0277817L13.311 14.3347L14.2748 16.0009L16.4777 19.8331L17.2708 21.2216C17.3086 21.2867 17.3592 21.3434 17.4194 21.3882C17.5124 21.4561 17.6241 21.493 17.7389 21.4937H33.8696L31.0334 16.5396C30.9332 16.3642 30.7874 16.2198 30.6117 16.1219C30.436 16.024 30.2371 15.9764 30.0366 15.9842H18.6476L21.9024 10.297L23.7528 13.5294C23.853 13.7048 23.9988 13.8492 24.1745 13.9471C24.3502 14.045 24.549 14.0926 24.7496 14.0848H29.6125L21.5224 -0.0444221L21.5389 1.87941e-05ZM25.047 37.0003L30.736 27.0588L33.9908 32.746H30.2899C30.0888 32.7445 29.8911 32.7986 29.7183 32.9024C29.5455 33.0061 29.4041 33.1557 29.3096 33.3347L26.8974 37.5946H43.1053L34.8609 23.2321H26.936C26.8622 23.2323 26.7891 23.2474 26.7212 23.2765C26.6171 23.3246 26.5305 23.4042 26.4734 23.5042L18.4107 37.589H24.0942C24.295 37.589 24.4919 37.5336 24.6637 37.4288C24.8355 37.3241 24.9757 37.174 25.069 36.9947L25.047 37.0003ZM20.4705 30.4467L20.5586 30.3967L20.4705 30.4467ZM26.7047 23.2821L26.6166 23.2321L26.7047 23.2821Z" fill="#FF1B0E"/>
</svg>
