<svg width="148" height="21" viewBox="0 0 148 21" fill="none" xmlns="http://www.w3.org/2000/svg">
<path d="M85.1477 16.4008C84.8786 16.1464 84.6651 15.8381 84.5209 15.4957C84.3768 15.1534 84.3051 14.7844 84.3106 14.4124V6.78135C84.2766 5.9774 84.5598 5.19262 85.0981 4.59865C85.3777 4.32601 85.7093 4.11352 86.0729 3.97413C86.4364 3.83473 86.8243 3.77133 87.2129 3.78777H89.3387C89.7273 3.77133 90.1151 3.83473 90.4787 3.97413C90.8422 4.11352 91.1739 4.32601 91.4535 4.59865C91.9923 5.1923 92.2755 5.9773 92.241 6.78135V14.4124C92.2468 14.7844 92.1753 15.1535 92.0311 15.4959C91.8869 15.8384 91.6733 16.1466 91.4039 16.4008C90.8369 16.9101 90.0976 17.1805 89.3387 17.1561H87.2404C86.4815 17.1805 85.7422 16.9101 85.1752 16.4008H85.1477ZM28.2082 0.410985H28.076C27.9653 0.411626 27.8583 0.450881 27.7731 0.522071C27.6869 0.594122 27.6284 0.694326 27.6079 0.80531L25.4545 9.99152V10.0915H24.4247C24.075 10.1213 23.7241 10.0521 23.4113 9.89155C23.1477 9.70068 22.968 9.41387 22.9102 9.09178L20.498 0.410985H15.6571L19.011 10.5302C19.3121 11.5391 19.8839 12.4444 20.6632 13.1461C21.4848 13.7831 22.5027 14.1075 23.538 14.0625H24.4853L24.4467 14.2236C24.3426 14.8456 24.0829 15.4305 23.6922 15.9231C23.449 16.1651 23.1566 16.351 22.8352 16.4679C22.5139 16.5849 22.1712 16.6302 21.8308 16.6007H18.7797V19.4332V19.4776C18.7797 19.7722 18.8958 20.0548 19.1023 20.2631C19.3089 20.4714 19.5891 20.5884 19.8812 20.5884H21.8583C24.0612 20.5884 25.5371 20.1163 26.578 19.1388C27.6189 18.1614 28.2302 16.6507 28.814 14.5902L32.669 0.438748L28.2082 0.410985ZM10.4693 8.47529C10.4056 8.82533 10.256 9.15374 10.0342 9.43056C9.82829 9.6987 9.54267 9.89333 9.21915 9.98596C8.91439 10.0707 8.59897 10.11 8.28292 10.1026H4.56552V4.34872H8.28292C8.58253 4.34739 8.88029 4.39619 9.16407 4.49313C9.42654 4.58174 9.6683 4.72348 9.87451 4.90967C10.1689 5.21878 10.3744 5.60271 10.4693 6.02046C10.5531 6.407 10.5901 6.80237 10.5794 7.19789C10.5879 7.62827 10.551 8.05834 10.4693 8.48085V8.47529ZM14.6328 4.42092C14.3258 3.61805 13.844 2.89492 13.2229 2.30488C12.5884 1.69366 11.8395 1.21599 11.02 0.899734C10.1515 0.573928 9.23154 0.4102 8.30494 0.416545H0.473624C0.411427 0.416545 0.349842 0.428897 0.29238 0.452901C0.234917 0.476905 0.182703 0.512091 0.138723 0.556444C0.0947433 0.600797 0.0598524 0.653444 0.0360506 0.711394C0.0122488 0.769344 0 0.831451 0 0.894175V19.4943C0.0104611 19.77 0.122266 20.0318 0.313649 20.229C0.505031 20.4261 0.762298 20.5443 1.03537 20.5606H4.57102V14.057H8.28842C9.35612 14.0679 10.4154 13.8659 11.4055 13.4627C12.3026 13.0995 13.1025 12.5288 13.7406 11.7965C14.2106 11.2038 14.5622 10.5248 14.776 9.79713C15.0193 8.95856 15.1381 8.08825 15.1284 7.21455C15.138 6.26619 14.9717 5.32438 14.6383 4.43759L14.6328 4.42092ZM45.5175 20.5606C45.8038 20.552 46.0756 20.4311 46.275 20.2238C46.4745 20.0164 46.586 19.7388 46.5859 19.4499V19.3999V16.5729H41.2493C40.5803 16.5954 39.9281 16.3589 39.4264 15.912C39.1916 15.6881 39.0052 15.4175 38.8792 15.1174C38.7531 14.8172 38.69 14.494 38.694 14.1681V6.94796C38.6635 6.23662 38.9129 5.54194 39.3879 5.0152C39.6346 4.7746 39.9274 4.58742 40.2485 4.46516C40.5696 4.34291 40.912 4.28817 41.2548 4.3043H45.5175C45.8018 4.30167 46.0741 4.18823 46.2775 3.98772C46.4763 3.78268 46.5888 3.50804 46.5914 3.22127V3.13797V0.361002H41.2548C38.8977 0.361002 37.196 0.96638 36.045 1.90499C35.4208 2.42146 34.9214 3.07442 34.5846 3.8144C34.2478 4.55437 34.0824 5.36197 34.1009 6.17597V14.5069C34.0813 15.3387 34.2474 16.1644 34.5867 16.9229C34.9261 17.6814 35.4301 18.3533 36.0615 18.8889C37.2401 19.8775 38.9638 20.4996 41.2548 20.4996H45.523L45.5175 20.5606ZM50.1601 0.410985C50.0344 0.411033 49.9137 0.4609 49.8241 0.549834C49.7802 0.594397 49.7455 0.647259 49.7218 0.705394C49.6982 0.763529 49.6862 0.825805 49.6865 0.888632V1.02192V19.3499V19.4499C49.6919 19.7355 49.8063 20.008 50.0059 20.2107C50.2092 20.4113 50.4815 20.5247 50.7659 20.5273H54.1969V4.34872H60.2934C60.5732 4.34042 60.8394 4.22499 61.0379 4.02589C61.2363 3.82679 61.3522 3.55895 61.3618 3.27682V0.416545H50.1601V0.410985ZM98.8938 0.410985C98.8311 0.410251 98.7689 0.422057 98.7108 0.445731C98.6527 0.469406 98.5999 0.504475 98.5553 0.548902C98.5107 0.593328 98.4754 0.646232 98.4512 0.704547C98.4271 0.762861 98.4146 0.825438 98.4146 0.888632V4.34872H103.267V19.3999V19.511C103.268 19.6467 103.296 19.7809 103.349 19.9057C103.402 20.0305 103.479 20.1436 103.575 20.2385C103.772 20.4359 104.035 20.5509 104.313 20.5606H107.755V4.34872H111.665C111.802 4.34882 111.938 4.32137 112.065 4.26797C112.192 4.21458 112.307 4.1363 112.403 4.0377C112.599 3.83544 112.712 3.56529 112.717 3.28238V3.14353V0.410985H98.8938ZM135.049 20.5606C135.242 20.5603 135.432 20.5086 135.6 20.4107C135.766 20.3095 135.903 20.1658 135.996 19.9942L136.035 19.9275L139.091 14.3069L139.207 14.1014L139.323 14.3069L142.759 20.5606H148.107L141.443 10.2526L141.399 10.1803L141.443 10.1081L147.501 0.394324H142.627C142.533 0.391858 142.44 0.419048 142.363 0.472088C142.283 0.529085 142.222 0.608207 142.186 0.699784L139.356 6.11487L139.24 6.33704L139.124 6.11487L136.15 0.410985H131.029L137.037 10.1248L137.081 10.197L137.037 10.2692L130.428 20.5662L135.049 20.5606ZM63.8291 20.5606H75.945C76.0878 20.5573 76.2284 20.5246 76.3582 20.4644C76.4879 20.4042 76.6041 20.3179 76.6995 20.2107C76.8908 19.99 76.9913 19.7039 76.9804 19.411V16.584H70.8673H68.3395V12.4741H74.7335C75.0174 12.4774 75.2917 12.37 75.499 12.1742C75.601 12.0768 75.6829 11.9598 75.7396 11.8301C75.7963 11.7004 75.8269 11.5606 75.8294 11.4189V8.48085H68.3395V4.33762H75.934C76.2165 4.32336 76.4827 4.20007 76.6775 3.99328C76.8723 3.78649 76.9808 3.51206 76.9804 3.22683V3.09353V0.377663H64.3137C64.2514 0.377388 64.1897 0.389516 64.132 0.413341C64.0744 0.437167 64.022 0.472223 63.9778 0.516512C63.9329 0.560616 63.8971 0.613271 63.8725 0.671428C63.8479 0.729584 63.835 0.792076 63.8346 0.855293V0.927497V20.5329L63.8291 20.5606ZM115.449 20.5606H127.565C127.707 20.5577 127.848 20.5251 127.978 20.4649C128.108 20.4047 128.224 20.3182 128.319 20.2107C128.51 19.99 128.611 19.7039 128.6 19.411V16.584H122.487H119.959V12.4741H126.353C126.637 12.4774 126.911 12.37 127.118 12.1742C127.22 12.0766 127.302 11.9596 127.359 11.8299C127.415 11.7003 127.446 11.5606 127.449 11.4189V8.48085H119.959V4.33762H127.554C127.837 4.32474 128.105 4.20204 128.301 3.99511C128.496 3.78817 128.606 3.51297 128.605 3.22683V0.377663H115.939C115.879 0.377332 115.821 0.388945 115.766 0.411833C115.711 0.434721 115.661 0.46842 115.619 0.510952C115.53 0.598684 115.478 0.718432 115.476 0.844191V20.5329L115.449 20.5606ZM94.6862 19.3055C95.3316 18.7545 95.847 18.0652 96.1947 17.288C96.5425 16.5107 96.7138 15.6649 96.6964 14.8123V5.97602C96.7162 5.14137 96.5476 4.3131 96.2031 3.5539C95.8587 2.79471 95.3475 2.12449 94.7083 1.59398C93.4141 0.538729 91.5967 0 89.3056 0H87.2074C84.9164 0 83.099 0.55539 81.8048 1.59398C81.1655 2.12449 80.6543 2.79471 80.3099 3.5539C79.9654 4.3131 79.7968 5.14137 79.8166 5.97602V14.8179C79.7988 15.6705 79.97 16.5164 80.3178 17.2937C80.6655 18.0711 81.1811 18.7603 81.8268 19.311C83.121 20.4218 84.9825 20.9772 87.2074 20.9772H89.3387C91.5416 20.9772 93.4251 20.4218 94.7193 19.311L94.6862 19.3055Z" fill="white"/>
</svg>
