<svg width="77" height="12" viewBox="0 0 77 12" fill="none" xmlns="http://www.w3.org/2000/svg">
<path d="M0.412344 10V0.199999H2.24634L5.22834 4.834L8.21034 0.199999H10.0443V10H8.32234V2.972L5.22834 7.592H5.17234L2.10634 3V10H0.412344ZM15.7586 10.168C14.676 10.168 13.7706 9.80867 13.0426 9.09C12.324 8.37133 11.9646 7.44267 11.9646 6.304C11.9646 5.23067 12.3053 4.32067 12.9866 3.574C13.668 2.82733 14.5313 2.454 15.5766 2.454C16.6966 2.454 17.5646 2.83667 18.1806 3.602C18.806 4.358 19.1186 5.30067 19.1186 6.43C19.1186 6.63533 19.1093 6.794 19.0906 6.906H13.6586C13.752 7.494 13.99 7.956 14.3726 8.292C14.7553 8.61867 15.2266 8.782 15.7866 8.782C16.5146 8.782 17.182 8.488 17.7886 7.9L18.7826 8.782C18.0173 9.706 17.0093 10.168 15.7586 10.168ZM13.6446 5.786H17.4386C17.3826 5.21667 17.1913 4.75 16.8646 4.386C16.538 4.022 16.104 3.84 15.5626 3.84C15.0493 3.84 14.62 4.022 14.2746 4.386C13.9293 4.74067 13.7193 5.20733 13.6446 5.786ZM19.9659 11.778V8.544H20.7639C21.3145 7.44267 21.5899 5.76733 21.5899 3.518V2.608H27.3159V8.544H28.3659L28.1419 11.778H26.7279V10H21.5479L21.3799 11.778H19.9659ZM22.4999 8.544H25.6219V4.064H23.1859V5.044C23.1859 6.416 22.9572 7.58267 22.4999 8.544ZM29.7749 10V2.608H31.4269V7.564C32.9763 5.36133 34.1429 3.70933 34.9269 2.608H36.5229V10H34.8849V5.072L31.3709 10H29.7749ZM44.85 10H43.17V9.09C42.5727 9.79933 41.7747 10.154 40.776 10.154C40.0387 10.154 39.4133 9.95333 38.9 9.552C38.396 9.14133 38.144 8.572 38.144 7.844C38.144 7.05067 38.4193 6.44867 38.97 6.038C39.5207 5.62733 40.244 5.422 41.14 5.422C41.8587 5.422 42.54 5.52467 43.184 5.73V5.59C43.184 5.07667 43.0253 4.68467 42.708 4.414C42.4 4.14333 41.952 4.008 41.364 4.008C40.692 4.008 39.9873 4.162 39.25 4.47L38.788 3.112C39.7027 2.70133 40.6407 2.496 41.602 2.496C42.6753 2.496 43.4827 2.76667 44.024 3.308C44.5747 3.84933 44.85 4.61933 44.85 5.618V10ZM43.212 7.326V6.906C42.708 6.71 42.1433 6.612 41.518 6.612C40.986 6.612 40.5707 6.71467 40.272 6.92C39.9733 7.12533 39.824 7.41467 39.824 7.788C39.824 8.124 39.9593 8.39 40.23 8.586C40.5007 8.782 40.8413 8.88 41.252 8.88C41.8213 8.88 42.288 8.73533 42.652 8.446C43.0253 8.15667 43.212 7.78333 43.212 7.326Z" fill="#F20000"/>
<path d="M50.2808 10.168C49.1888 10.168 48.2788 9.79933 47.5508 9.062C46.8228 8.31533 46.4588 7.41 46.4588 6.346V6.318C46.4588 5.254 46.8228 4.344 47.5508 3.588C48.2881 2.832 49.2028 2.454 50.2948 2.454C51.4894 2.454 52.4741 2.87867 53.2488 3.728L52.1988 4.862C51.6108 4.246 50.9714 3.938 50.2808 3.938C49.6741 3.938 49.1654 4.16667 48.7548 4.624C48.3534 5.08133 48.1528 5.63667 48.1528 6.29V6.318C48.1528 6.99 48.3581 7.55467 48.7688 8.012C49.1888 8.46933 49.7208 8.698 50.3648 8.698C51.0461 8.698 51.6854 8.39 52.2828 7.774L53.3048 8.782C52.9034 9.23 52.4648 9.57533 51.9888 9.818C51.5221 10.0513 50.9528 10.168 50.2808 10.168ZM58.1825 10.168C57.0998 10.168 56.1945 9.80867 55.4665 9.09C54.7478 8.37133 54.3885 7.44267 54.3885 6.304C54.3885 5.23067 54.7291 4.32067 55.4105 3.574C56.0918 2.82733 56.9551 2.454 58.0005 2.454C59.1205 2.454 59.9885 2.83667 60.6045 3.602C61.2298 4.358 61.5425 5.30067 61.5425 6.43C61.5425 6.63533 61.5331 6.794 61.5145 6.906H56.0825C56.1758 7.494 56.4138 7.956 56.7965 8.292C57.1791 8.61867 57.6505 8.782 58.2105 8.782C58.9385 8.782 59.6058 8.488 60.2125 7.9L61.2065 8.782C60.4411 9.706 59.4331 10.168 58.1825 10.168ZM56.0685 5.786H59.8625C59.8065 5.21667 59.6151 4.75 59.2885 4.386C58.9618 4.022 58.5278 3.84 57.9865 3.84C57.4731 3.84 57.0438 4.022 56.6985 4.386C56.3531 4.74067 56.1431 5.20733 56.0685 5.786ZM64.8257 10V4.064H62.4457V2.608H68.9137V4.064H66.5337V10H64.8257ZM70.2574 10V2.608H71.9514V5.198H73.6454C74.5227 5.198 75.232 5.394 75.7734 5.786C76.3147 6.178 76.5854 6.76133 76.5854 7.536C76.5854 8.30133 76.3334 8.90333 75.8294 9.342C75.3254 9.78067 74.6394 10 73.7714 10H70.2574ZM71.9514 8.628H73.5474C73.9767 8.628 74.308 8.53467 74.5414 8.348C74.7747 8.16133 74.8914 7.89067 74.8914 7.536C74.8914 7.20933 74.77 6.95733 74.5274 6.78C74.294 6.60267 73.958 6.514 73.5194 6.514H71.9514V8.628Z" fill="white"/>
</svg>
