<svg width="50" height="34" viewBox="0 0 50 34" fill="none" xmlns="http://www.w3.org/2000/svg">
<path d="M10.1674 23.9319C11.3174 23.9319 14.2745 23.6869 16.4102 22.1352V23.3602H20.7638V18.0519L22.5709 16.1735L26.5959 23.3602H31.8531L25.7745 13.1519L31.6888 6.7002H26.2674L20.7638 12.9885V0.820202H16.4102V2.7802C15.0959 1.39187 12.8781 0.248535 9.51021 0.248535C2.1995 0.248535 0.803069 4.65854 0.803069 7.1902C0.803069 10.6202 2.61021 12.4985 5.81378 13.2335L10.3316 14.3769C12.7138 14.9485 14.4388 15.4385 14.4388 17.1535C14.4388 19.5219 11.9745 20.0935 9.6745 20.0935C5.56735 20.0935 4.91021 17.7252 4.91021 16.4185H0.556641C0.556641 19.1952 1.95307 23.9319 10.1674 23.9319ZM13.2066 10.5385L7.70307 9.1502C6.7995 8.9052 5.32093 8.57854 5.32093 6.78187C5.32093 4.7402 7.45664 4.08687 9.26378 4.08687C13.3709 4.08687 13.7816 6.4552 13.8638 7.51687H16.4924V11.6819C15.5066 11.1919 14.3566 10.7835 13.2066 10.5385Z" fill="white"/>
<path d="M4.33594 33.7316C3.92522 33.7316 3.51451 33.7316 3.26808 33.6499V32.3433C3.43237 32.4249 3.59665 32.5066 3.84308 32.5066C4.17165 32.5066 4.41808 32.3433 4.58237 32.0983V32.0166L1.46094 26.2183H3.35022L5.4038 30.3833L6.96451 26.2183H8.77165L6.06094 32.5066C5.89665 32.8333 5.73237 33.0783 5.56808 33.2416C5.40379 33.4866 5.15737 33.5683 4.91094 33.7316C4.66451 33.7316 4.41808 33.7316 4.33594 33.7316Z" fill="white"/>
<path d="M13.4532 33.6498H11.9746V31.3631C11.8104 31.4448 11.5639 31.5264 11.2354 31.6898C10.9068 31.8531 10.5782 31.8531 10.2496 31.8531C9.67464 31.8531 9.18178 31.6898 8.85321 31.3631C8.52464 31.0364 8.36035 30.5464 8.36035 29.8931V28.0148H9.83892V29.8114C9.83892 30.3014 10.1675 30.5464 10.8246 30.5464C10.9889 30.5464 11.2354 30.4648 11.4818 30.3831C11.7282 30.3014 11.8925 30.2198 11.9746 30.1381V27.9331H13.4532V33.6498Z" fill="white"/>
<path d="M19.6141 32.5882C19.6141 32.9149 19.6141 33.0782 19.6963 33.2416C19.7784 33.3232 19.8605 33.4049 19.9427 33.4866V33.6499H18.382C18.2998 33.4049 18.2998 33.2416 18.2177 32.9966C17.9713 33.2416 17.7248 33.4049 17.4784 33.5682C17.232 33.7316 16.8213 33.8132 16.4105 33.8132C16.082 33.8132 15.8355 33.7316 15.5891 33.6499C15.3427 33.5682 15.0963 33.3232 14.932 33.0782C14.7677 32.8332 14.6855 32.5066 14.6855 32.1799C14.6855 31.8532 14.7677 31.5266 14.932 31.2816C15.0963 31.0366 15.2605 30.8732 15.507 30.7099C15.7534 30.5466 15.9998 30.4649 16.3284 30.4649L17.6427 30.3016C17.9713 30.2199 18.1355 30.1382 18.1355 29.8932C18.1355 29.6482 18.0534 29.4849 17.8891 29.4032C17.7248 29.3216 17.4784 29.3216 17.232 29.3216C16.9034 29.3216 16.657 29.4032 16.5748 29.5666C16.4105 29.7299 16.4105 29.8932 16.3284 30.1382H14.932C15.0141 29.5666 15.0963 29.1582 15.3427 28.9132C15.5891 28.6682 15.8355 28.4232 16.2463 28.3416C16.5748 28.2599 16.9855 28.1782 17.3963 28.1782C17.7248 28.1782 18.0534 28.2599 18.382 28.3416C18.7105 28.4232 19.0391 28.5866 19.2855 28.8316C19.532 29.0766 19.6141 29.4032 19.6141 29.8116V32.5882ZM18.2177 30.9549C18.0534 31.1182 17.7248 31.1999 17.232 31.2816C16.9855 31.2816 16.8213 31.3632 16.7391 31.4449C16.5748 31.5266 16.4927 31.6082 16.4105 31.6899C16.3284 31.7716 16.2463 31.9349 16.2463 32.1799C16.2463 32.4249 16.3284 32.5882 16.4927 32.6699C16.657 32.7516 16.8213 32.8332 16.9855 32.8332C17.232 32.8332 17.3963 32.7516 17.6427 32.6699C17.807 32.5882 17.9713 32.4249 18.1355 32.2616C18.2998 32.0982 18.2998 31.9349 18.2998 31.6899V30.9549H18.2177Z" fill="white"/>
<path d="M25.6926 31.6081C25.6926 31.7714 25.6104 32.0164 25.5283 32.2614C25.4461 32.5064 25.2819 32.7514 25.1176 32.9964C24.9533 33.2414 24.7069 33.4048 24.2961 33.5681C23.9676 33.7314 23.5569 33.8131 23.064 33.8131C22.5711 33.8131 22.1604 33.7314 21.8319 33.5681C21.5033 33.4048 21.2569 33.1598 21.0104 32.9148C20.8461 32.6698 20.6819 32.3431 20.5997 32.0164C20.5176 31.6898 20.5176 31.3631 20.5176 31.0364C20.5176 30.3831 20.5997 29.8931 20.764 29.4031C20.9283 28.9131 21.2569 28.5864 21.6676 28.3414C22.0783 28.0964 22.5711 27.9331 23.2283 27.9331C23.5569 27.9331 23.9676 28.0148 24.2961 28.0964C24.6247 28.2598 24.9533 28.4231 25.1997 28.7498C25.4461 29.0764 25.6104 29.4848 25.6926 30.0564H24.214C24.1319 29.4848 23.8033 29.1581 23.2283 29.1581C22.9819 29.1581 22.7354 29.2398 22.5711 29.4031C22.4069 29.5664 22.2426 29.7298 22.1604 29.9748C22.0783 30.2198 22.0783 30.4648 22.0783 30.7098C22.0783 31.0364 22.0783 31.2814 22.1604 31.5264C22.2426 31.7714 22.3247 32.0164 22.489 32.1798C22.6533 32.3431 22.8997 32.5064 23.2283 32.5064C23.4747 32.5064 23.639 32.4248 23.8033 32.3431C23.9676 32.2614 24.0497 32.0981 24.1319 31.9348C24.214 31.7714 24.214 31.6898 24.214 31.5264H25.6926V31.6081Z" fill="white"/>
<path d="M27.9104 33.65V29.24H26.2676V28.0967H31.114V29.24H29.4712V33.65H27.9104Z" fill="white"/>
<path d="M36.9463 33.65H35.4677V31.445H33.4141V33.65H31.9355V28.0967H33.4141V30.3017H35.4677V28.0967H36.9463V33.65Z" fill="white"/>
<path d="M43.2715 33.65H41.7929V30.3017L39.8215 33.65H38.2607V28.0967H39.7393V31.445L41.7107 28.0967H43.2715V33.65Z" fill="white"/>
<path d="M46.0645 33.65H44.5859V28.0967H46.0645V30.22L47.9538 28.0967H49.7609L47.7895 30.22L49.8431 33.65H48.0359L46.6395 31.2817L46.0645 31.935V33.65Z" fill="white"/>
</svg>
